<svg width="50" height="50" viewBox="0 0 50 50" fill="none" xmlns="http://www.w3.org/2000/svg">
<path d="M12.9083 36.4271C14.6792 35.1521 16.5583 34.1444 18.5458 33.4042C20.5319 32.6625 22.6833 32.2917 25 32.2917C27.3153 32.2917 29.4667 32.6625 31.4542 33.4042C33.4403 34.1444 35.3194 35.1514 37.0917 36.425C38.4667 35.0028 39.5729 33.3222 40.4104 31.3833C41.2479 29.4417 41.6667 27.3139 41.6667 25C41.6667 20.3819 40.0438 16.4493 36.7979 13.2021C33.5521 9.95486 29.6194 8.33194 25 8.33333C20.3819 8.33333 16.4493 9.95694 13.2021 13.2042C9.95486 16.4514 8.33194 20.3833 8.33333 25C8.33333 27.3153 8.75208 29.4424 9.58958 31.3812C10.4271 33.3215 11.5333 35.0035 12.9083 36.4271ZM25.0021 26.0417C23.2465 26.0417 21.7653 25.4389 20.5583 24.2333C19.3528 23.0292 18.75 21.5493 18.75 19.7938C18.75 18.0382 19.3528 16.5569 20.5583 15.35C21.7625 14.1444 23.2424 13.5417 24.9979 13.5417C26.7535 13.5417 28.2347 14.1444 29.4417 15.35C30.6472 16.5542 31.25 18.034 31.25 19.7896C31.25 21.5451 30.6472 23.0264 29.4417 24.2333C28.2375 25.4389 26.7576 26.0417 25.0021 26.0417ZM25 43.75C22.3847 43.75 19.9368 43.2632 17.6562 42.2896C15.3757 41.3174 13.391 39.9868 11.7021 38.2979C10.0146 36.609 8.68403 34.6243 7.71042 32.3437C6.73681 30.0632 6.25 27.6153 6.25 25C6.25 22.3847 6.73681 19.9368 7.71042 17.6562C8.68264 15.3757 10.0132 13.391 11.7021 11.7021C13.391 10.0146 15.3757 8.68403 17.6562 7.71042C19.9368 6.73681 22.3847 6.25 25 6.25C27.6153 6.25 30.0632 6.73681 32.3437 7.71042C34.6243 8.68264 36.609 10.0132 38.2979 11.7021C39.9854 13.391 41.316 15.3757 42.2896 17.6562C43.2632 19.9368 43.75 22.3847 43.75 25C43.75 27.6153 43.2632 30.0632 42.2896 32.3437C41.3174 34.6243 39.9868 36.609 38.2979 38.2979C36.609 39.9854 34.6243 41.316 32.3437 42.2896C30.0632 43.2632 27.6153 43.75 25 43.75ZM25 41.6667C26.9208 41.6667 28.8104 41.3306 30.6687 40.6583C32.5285 39.9875 34.1354 39.0681 35.4896 37.9C34.1354 36.8139 32.5688 35.9549 30.7896 35.3229C29.0118 34.691 27.0819 34.375 25 34.375C22.9194 34.375 20.9833 34.684 19.1917 35.3021C17.4 35.9201 15.8396 36.7861 14.5104 37.9C15.8646 39.0667 17.4715 39.9861 19.3313 40.6583C21.1896 41.3306 23.0792 41.6667 25 41.6667ZM25 23.9583C26.1694 23.9583 27.1562 23.5562 27.9604 22.7521C28.7646 21.9479 29.1667 20.9611 29.1667 19.7917C29.1667 18.6222 28.7646 17.6354 27.9604 16.8313C27.1562 16.0271 26.1694 15.625 25 15.625C23.8306 15.625 22.8438 16.0271 22.0396 16.8313C21.2354 17.6354 20.8333 18.6222 20.8333 19.7917C20.8333 20.9611 21.2354 21.9479 22.0396 22.7521C22.8438 23.5562 23.8306 23.9583 25 23.9583Z" fill="black"/>
</svg>
