<svg width="50" height="50" viewBox="0 0 50 50" fill="none" xmlns="http://www.w3.org/2000/svg">
<path d="M25 35.2562L17.2125 38.6062C16.0903 39.0895 15.0243 38.9964 14.0146 38.327C13.0049 37.6576 12.5 36.7235 12.5 35.5249V11.6978C12.5 10.7395 12.8215 9.9395 13.4646 9.29783C14.1062 8.65478 14.9062 8.33325 15.8646 8.33325H34.1354C35.0938 8.33325 35.8938 8.65478 36.5354 9.29783C37.1785 9.9395 37.5 10.7395 37.5 11.6978V35.5249C37.5 36.7235 36.9951 37.6576 35.9854 38.327C34.9757 38.9964 33.9097 39.0895 32.7875 38.6062L25 35.2562ZM25 32.9166L33.6146 36.6353C34.041 36.8214 34.4479 36.7812 34.8354 36.5145C35.2229 36.2478 35.4167 35.8867 35.4167 35.4312V11.6999C35.4167 11.3805 35.2833 11.0867 35.0167 10.8187C34.7486 10.5506 34.4549 10.4166 34.1354 10.4166H15.8646C15.5451 10.4166 15.2514 10.5499 14.9833 10.8166C14.7167 11.0846 14.5833 11.3784 14.5833 11.6978V35.4333C14.5833 35.8874 14.7771 36.2478 15.1646 36.5145C15.5521 36.7812 15.959 36.8214 16.3854 36.6353L25 32.9166ZM25 10.4166H14.5833H35.4167H25Z" fill="black"/>
</svg>
